<svg width="327" height="197" viewBox="0 0 327 197" fill="none" xmlns="http://www.w3.org/2000/svg">
<path d="M21 32.121L13.5 24.6195L15.6195 22.5L21 27.879L32.3775 16.5L34.5 18.6225L21 32.121Z" fill="#1EA575"/>
<path d="M24 3C19.8466 3 15.7865 4.23163 12.333 6.53914C8.8796 8.84665 6.18798 12.1264 4.59854 15.9636C3.0091 19.8009 2.59323 24.0233 3.40352 28.0969C4.21381 32.1705 6.21386 35.9123 9.15077 38.8492C12.0877 41.7861 15.8295 43.7862 19.9031 44.5965C23.9767 45.4068 28.1991 44.9909 32.0364 43.4015C35.8736 41.812 39.1534 39.1204 41.4609 35.667C43.7684 32.2135 45 28.1534 45 24C45 18.4305 42.7875 13.089 38.8493 9.15076C34.911 5.21249 29.5696 3 24 3ZM24 42C20.4399 42 16.9598 40.9443 13.9997 38.9665C11.0397 36.9886 8.73256 34.1774 7.37018 30.8883C6.0078 27.5992 5.65134 23.98 6.34587 20.4884C7.04041 16.9967 8.75474 13.7894 11.2721 11.2721C13.7894 8.75473 16.9967 7.0404 20.4884 6.34587C23.98 5.65133 27.5992 6.00779 30.8883 7.37017C34.1774 8.73255 36.9886 11.0397 38.9665 13.9997C40.9443 16.9598 42 20.4399 42 24C42 28.7739 40.1036 33.3523 36.7279 36.7279C33.3523 40.1036 28.7739 42 24 42Z" fill="#1EA575"/>
<path d="M16.28 110.44C14.2533 110.44 12.36 110.08 10.6 109.36C8.84 108.613 7.29333 107.587 5.96 106.28C4.65333 104.947 3.62667 103.413 2.88 101.68C2.16 99.92 1.8 98.0267 1.8 96C1.8 93.9733 2.16 92.0933 2.88 90.36C3.62667 88.6 4.65333 87.0667 5.96 85.76C7.29333 84.4267 8.84 83.4 10.6 82.68C12.36 81.9333 14.2533 81.56 16.28 81.56C18.3067 81.56 20.2 81.9333 21.96 82.68C23.72 83.4 25.2533 84.4267 26.56 85.76C27.8933 87.0667 28.92 88.6 29.64 90.36C30.3867 92.0933 30.76 93.9733 30.76 96C30.76 98.0267 30.3867 99.92 29.64 101.68C28.92 103.413 27.8933 104.947 26.56 106.28C25.2533 107.587 23.72 108.613 21.96 109.36C20.2 110.08 18.3067 110.44 16.28 110.44ZM16.28 104.32C17.32 104.32 18.2933 104.12 19.2 103.72C20.1067 103.293 20.8933 102.707 21.56 101.96C22.2267 101.187 22.7467 100.307 23.12 99.32C23.4933 98.3067 23.68 97.2 23.68 96C23.68 94.8 23.4933 93.7067 23.12 92.72C22.7467 91.7067 22.2267 90.8267 21.56 90.08C20.8933 89.3067 20.1067 88.72 19.2 88.32C18.2933 87.8933 17.32 87.68 16.28 87.68C15.24 87.68 14.2667 87.8933 13.36 88.32C12.4533 88.72 11.6667 89.3067 11 90.08C10.3333 90.8267 9.81333 91.7067 9.44 92.72C9.06667 93.7067 8.88 94.8 8.88 96C8.88 97.2 9.06667 98.3067 9.44 99.32C9.81333 100.307 10.3333 101.187 11 101.96C11.6667 102.707 12.4533 103.293 13.36 103.72C14.2667 104.12 15.24 104.32 16.28 104.32ZM35.0981 110V89.36H41.5781V94.04C42.2448 92.3067 43.0315 91.0267 43.9381 90.2C44.8715 89.3733 45.9515 88.96 47.1781 88.96C47.6315 88.9867 48.0048 89.0267 48.2981 89.08C48.5915 89.1333 48.9381 89.2667 49.3381 89.48V95.04C48.9381 94.8267 48.4715 94.6667 47.9381 94.56C47.4048 94.4533 46.8581 94.4 46.2981 94.4C45.3381 94.4 44.4448 94.64 43.6181 95.12C42.7915 95.5733 42.1115 96.1867 41.5781 96.96V110H35.0981ZM60.3684 110.12C58.6884 110.12 57.1551 109.653 55.7684 108.72C54.3818 107.76 53.2751 106.493 52.4484 104.92C51.6484 103.32 51.2484 101.56 51.2484 99.64C51.2484 97.6933 51.6751 95.9467 52.5284 94.4C53.3818 92.8267 54.5284 91.5733 55.9684 90.64C57.4351 89.7067 59.0618 89.24 60.8484 89.24C61.9418 89.24 62.9551 89.4533 63.8884 89.88C64.8484 90.3067 65.6751 90.92 66.3684 91.72V81.52L72.8484 80.52V110H66.4484V107.32C65.7818 108.173 64.9018 108.853 63.8084 109.36C62.7418 109.867 61.5951 110.12 60.3684 110.12ZM62.5284 104.76C63.3018 104.76 64.0084 104.627 64.6484 104.36C65.2884 104.067 65.8618 103.653 66.3684 103.12V96.16C65.8618 95.6267 65.2751 95.2267 64.6084 94.96C63.9684 94.6933 63.2751 94.56 62.5284 94.56C61.5951 94.56 60.7551 94.7867 60.0084 95.24C59.2618 95.6667 58.6751 96.2667 58.2484 97.04C57.8218 97.8133 57.6084 98.6933 57.6084 99.68C57.6084 100.64 57.8218 101.507 58.2484 102.28C58.6751 103.053 59.2618 103.667 60.0084 104.12C60.7551 104.547 61.5951 104.76 62.5284 104.76ZM87.8316 110.4C85.8049 110.4 83.9649 109.933 82.3116 109C80.6849 108.04 79.3782 106.76 78.3916 105.16C77.4316 103.533 76.9516 101.72 76.9516 99.72C76.9516 97.6933 77.4049 95.88 78.3116 94.28C79.2182 92.68 80.4582 91.4133 82.0316 90.48C83.6049 89.52 85.3782 89.04 87.3516 89.04C89.3516 89.04 91.1116 89.5067 92.6316 90.44C94.1516 91.3733 95.3382 92.6667 96.1916 94.32C97.0716 95.9467 97.5116 97.8267 97.5116 99.96V101.36H83.3116C83.5249 102.133 83.8582 102.813 84.3116 103.4C84.7649 103.987 85.3249 104.44 85.9916 104.76C86.6582 105.08 87.3782 105.24 88.1516 105.24C89.0049 105.24 89.7782 105.093 90.4716 104.8C91.1916 104.507 91.7782 104.08 92.2316 103.52L96.5116 107.08C95.1782 108.253 93.8316 109.107 92.4716 109.64C91.1116 110.147 89.5649 110.4 87.8316 110.4ZM83.3116 97.68H91.5116C91.3249 96.9333 91.0316 96.2933 90.6316 95.76C90.2316 95.2267 89.7516 94.8133 89.1916 94.52C88.6316 94.2267 88.0049 94.08 87.3116 94.08C86.6449 94.08 86.0316 94.2267 85.4716 94.52C84.9382 94.7867 84.4849 95.1867 84.1116 95.72C83.7649 96.2533 83.4982 96.9067 83.3116 97.68ZM101.543 110V89.36H108.023V94.04C108.69 92.3067 109.477 91.0267 110.383 90.2C111.317 89.3733 112.397 88.96 113.623 88.96C114.077 88.9867 114.45 89.0267 114.743 89.08C115.037 89.1333 115.383 89.2667 115.783 89.48V95.04C115.383 94.8267 114.917 94.6667 114.383 94.56C113.85 94.4533 113.303 94.4 112.743 94.4C111.783 94.4 110.89 94.64 110.063 95.12C109.237 95.5733 108.557 96.1867 108.023 96.96V110H101.543ZM16.56 158.44C14.48 158.44 12.5467 158.08 10.76 157.36C8.97333 156.613 7.4 155.587 6.04 154.28C4.70667 152.973 3.66667 151.44 2.92 149.68C2.17333 147.92 1.8 146.027 1.8 144C1.8 141.947 2.17333 140.053 2.92 138.32C3.66667 136.56 4.70667 135.027 6.04 133.72C7.4 132.413 8.97333 131.4 10.76 130.68C12.5467 129.933 14.48 129.56 16.56 129.56C18.0533 129.56 19.5067 129.787 20.92 130.24C22.36 130.667 23.68 131.293 24.88 132.12C26.1067 132.92 27.12 133.88 27.92 135L23.28 139.4C22.3733 138.147 21.36 137.213 20.24 136.6C19.12 135.987 17.8933 135.68 16.56 135.68C15.4667 135.68 14.4533 135.893 13.52 136.32C12.6133 136.72 11.8133 137.307 11.12 138.08C10.4267 138.827 9.88 139.707 9.48 140.72C9.10667 141.707 8.92 142.8 8.92 144C8.92 145.2 9.10667 146.307 9.48 147.32C9.88 148.307 10.4267 149.187 11.12 149.96C11.8133 150.707 12.6133 151.293 13.52 151.72C14.4533 152.12 15.4667 152.32 16.56 152.32C17.8933 152.32 19.12 152.013 20.24 151.4C21.36 150.76 22.3733 149.827 23.28 148.6L27.92 153C27.12 154.093 26.1067 155.053 24.88 155.88C23.68 156.707 22.36 157.347 20.92 157.8C19.5067 158.227 18.0533 158.44 16.56 158.44ZM40.6031 158.4C38.5498 158.4 36.7098 157.933 35.0831 157C33.4565 156.067 32.1631 154.8 31.2031 153.2C30.2698 151.573 29.8031 149.747 29.8031 147.72C29.8031 145.693 30.2698 143.88 31.2031 142.28C32.1631 140.653 33.4565 139.373 35.0831 138.44C36.7098 137.507 38.5365 137.04 40.5631 137.04C42.6165 137.04 44.4431 137.507 46.0431 138.44C47.6698 139.373 48.9498 140.653 49.8831 142.28C50.8431 143.88 51.3231 145.693 51.3231 147.72C51.3231 149.747 50.8431 151.573 49.8831 153.2C48.9498 154.8 47.6698 156.067 46.0431 157C44.4431 157.933 42.6298 158.4 40.6031 158.4ZM40.5631 153C41.4431 153 42.2165 152.773 42.8831 152.32C43.5498 151.867 44.0698 151.24 44.4431 150.44C44.8165 149.64 45.0031 148.733 45.0031 147.72C45.0031 146.68 44.8165 145.773 44.4431 145C44.0698 144.2 43.5498 143.573 42.8831 143.12C42.2165 142.667 41.4431 142.44 40.5631 142.44C39.7098 142.44 38.9365 142.667 38.2431 143.12C37.5765 143.573 37.0565 144.2 36.6831 145C36.3098 145.773 36.1231 146.68 36.1231 147.72C36.1231 148.733 36.3098 149.64 36.6831 150.44C37.0565 151.24 37.5765 151.867 38.2431 152.32C38.9365 152.773 39.7098 153 40.5631 153ZM55.4497 158V137.36H61.9297V140.72C62.7297 139.52 63.6764 138.613 64.7697 138C65.8897 137.36 67.1164 137.04 68.4497 137.04C69.783 137.04 70.9564 137.347 71.9697 137.96C73.0097 138.547 73.823 139.373 74.4097 140.44C74.9964 141.48 75.2897 142.693 75.2897 144.08V158H68.8097V145.96C68.8097 144.787 68.4897 143.853 67.8497 143.16C67.2364 142.467 66.4097 142.12 65.3697 142.12C64.6764 142.12 64.0364 142.267 63.4497 142.56C62.8897 142.827 62.383 143.253 61.9297 143.84V158H55.4497ZM82.6303 158V142.36H78.3503V137.36H82.6303V134.64C82.6303 132.187 83.337 130.307 84.7503 129C86.1636 127.693 88.2036 127.04 90.8703 127.04C91.4303 127.04 92.0303 127.08 92.6703 127.16C93.337 127.213 93.8836 127.307 94.3103 127.44V132.76C93.7236 132.653 93.257 132.587 92.9103 132.56C92.5636 132.533 92.2036 132.52 91.8303 132.52C90.9236 132.52 90.2436 132.707 89.7903 133.08C89.337 133.427 89.1103 133.987 89.1103 134.76V137.36H94.3103V142.36H89.1103V158H82.6303ZM97.9888 158V137.36H104.469V158H97.9888ZM101.229 134.2C100.242 134.2 99.3888 133.84 98.6688 133.12C97.9488 132.4 97.5888 131.547 97.5888 130.56C97.5888 129.547 97.9488 128.693 98.6688 128C99.3888 127.28 100.242 126.92 101.229 126.92C102.242 126.92 103.095 127.28 103.789 128C104.509 128.693 104.869 129.547 104.869 130.56C104.869 131.547 104.509 132.4 103.789 133.12C103.095 133.84 102.242 134.2 101.229 134.2ZM109.512 158V137.36H115.992V142.04C116.659 140.307 117.446 139.027 118.352 138.2C119.286 137.373 120.366 136.96 121.592 136.96C122.046 136.987 122.419 137.027 122.712 137.08C123.006 137.133 123.352 137.267 123.752 137.48V143.04C123.352 142.827 122.886 142.667 122.352 142.56C121.819 142.453 121.272 142.4 120.712 142.4C119.752 142.4 118.859 142.64 118.032 143.12C117.206 143.573 116.526 144.187 115.992 144.96V158H109.512ZM127.208 158V137.36H133.688V140.64C134.461 139.467 135.354 138.573 136.368 137.96C137.408 137.347 138.554 137.04 139.808 137.04C141.141 137.04 142.314 137.387 143.328 138.08C144.341 138.773 145.101 139.707 145.608 140.88C146.408 139.627 147.381 138.68 148.528 138.04C149.674 137.373 150.954 137.04 152.368 137.04C153.648 137.04 154.768 137.347 155.728 137.96C156.714 138.573 157.474 139.427 158.008 140.52C158.568 141.613 158.848 142.867 158.848 144.28V158H152.368V145.56C152.368 144.52 152.088 143.693 151.528 143.08C150.968 142.44 150.221 142.12 149.288 142.12C148.701 142.12 148.154 142.253 147.648 142.52C147.168 142.76 146.714 143.147 146.288 143.68C146.288 143.787 146.288 143.893 146.288 144C146.288 144.08 146.288 144.173 146.288 144.28V158H139.808V145.56C139.808 144.52 139.528 143.693 138.968 143.08C138.408 142.44 137.661 142.12 136.728 142.12C135.528 142.12 134.514 142.653 133.688 143.72V158H127.208ZM173.691 158.4C171.664 158.4 169.824 157.933 168.171 157C166.544 156.04 165.238 154.76 164.251 153.16C163.291 151.533 162.811 149.72 162.811 147.72C162.811 145.693 163.264 143.88 164.171 142.28C165.078 140.68 166.318 139.413 167.891 138.48C169.464 137.52 171.238 137.04 173.211 137.04C175.211 137.04 176.971 137.507 178.491 138.44C180.011 139.373 181.198 140.667 182.051 142.32C182.931 143.947 183.371 145.827 183.371 147.96V149.36H169.171C169.384 150.133 169.718 150.813 170.171 151.4C170.624 151.987 171.184 152.44 171.851 152.76C172.518 153.08 173.238 153.24 174.011 153.24C174.864 153.24 175.638 153.093 176.331 152.8C177.051 152.507 177.638 152.08 178.091 151.52L182.371 155.08C181.038 156.253 179.691 157.107 178.331 157.64C176.971 158.147 175.424 158.4 173.691 158.4ZM169.171 145.68H177.371C177.184 144.933 176.891 144.293 176.491 143.76C176.091 143.227 175.611 142.813 175.051 142.52C174.491 142.227 173.864 142.08 173.171 142.08C172.504 142.08 171.891 142.227 171.331 142.52C170.798 142.787 170.344 143.187 169.971 143.72C169.624 144.253 169.358 144.907 169.171 145.68ZM195.798 158.12C194.118 158.12 192.585 157.653 191.198 156.72C189.811 155.76 188.705 154.493 187.878 152.92C187.078 151.32 186.678 149.56 186.678 147.64C186.678 145.693 187.105 143.947 187.958 142.4C188.811 140.827 189.958 139.573 191.398 138.64C192.865 137.707 194.491 137.24 196.278 137.24C197.371 137.24 198.385 137.453 199.318 137.88C200.278 138.307 201.105 138.92 201.798 139.72V129.52L208.278 128.52V158H201.878V155.32C201.211 156.173 200.331 156.853 199.238 157.36C198.171 157.867 197.025 158.12 195.798 158.12ZM197.958 152.76C198.731 152.76 199.438 152.627 200.078 152.36C200.718 152.067 201.291 151.653 201.798 151.12V144.16C201.291 143.627 200.705 143.227 200.038 142.96C199.398 142.693 198.705 142.56 197.958 142.56C197.025 142.56 196.185 142.787 195.438 143.24C194.691 143.667 194.105 144.267 193.678 145.04C193.251 145.813 193.038 146.693 193.038 147.68C193.038 148.64 193.251 149.507 193.678 150.28C194.105 151.053 194.691 151.667 195.438 152.12C196.185 152.547 197.025 152.76 197.958 152.76Z" fill="#260F08"/>
<path d="M3.088 192L0.672 180.8H1.92L3.824 190.064L6.592 180.8H7.792L10.56 190.032L12.48 180.8H13.68L11.264 192H10.016L7.184 182.496L4.336 192H3.088ZM18.4388 192.16C17.7134 192.16 17.0574 191.984 16.4708 191.632C15.8841 191.269 15.4201 190.784 15.0788 190.176C14.7374 189.557 14.5668 188.864 14.5668 188.096C14.5668 187.328 14.7268 186.64 15.0468 186.032C15.3774 185.424 15.8201 184.944 16.3748 184.592C16.9294 184.24 17.5481 184.064 18.2308 184.064C18.9241 184.064 19.5374 184.24 20.0708 184.592C20.6148 184.933 21.0414 185.403 21.3508 186C21.6708 186.587 21.8308 187.253 21.8308 188V188.352H15.7028C15.7454 188.885 15.8894 189.365 16.1348 189.792C16.3908 190.208 16.7214 190.539 17.1268 190.784C17.5428 191.019 17.9961 191.136 18.4868 191.136C18.8921 191.136 19.2814 191.067 19.6548 190.928C20.0388 190.779 20.3641 190.581 20.6308 190.336L21.3668 191.12C20.9188 191.472 20.4548 191.733 19.9748 191.904C19.4948 192.075 18.9828 192.16 18.4388 192.16ZM15.7348 187.52H20.6788C20.6254 187.051 20.4814 186.635 20.2468 186.272C20.0228 185.899 19.7348 185.605 19.3828 185.392C19.0414 185.179 18.6574 185.072 18.2308 185.072C17.8041 185.072 17.4148 185.179 17.0628 185.392C16.7108 185.595 16.4174 185.883 16.1828 186.256C15.9588 186.619 15.8094 187.04 15.7348 187.52ZM27.5594 192V180.448L28.7274 180.208V185.456C29.026 184.987 29.3834 184.64 29.7994 184.416C30.2154 184.181 30.6847 184.064 31.2074 184.064C31.7727 184.064 32.2634 184.187 32.6794 184.432C33.106 184.667 33.4367 185.003 33.6714 185.44C33.9167 185.867 34.0394 186.368 34.0394 186.944V192H32.8714V187.28C32.8714 186.587 32.6794 186.043 32.2954 185.648C31.922 185.243 31.4154 185.04 30.7754 185.04C30.3487 185.04 29.9594 185.141 29.6074 185.344C29.2554 185.547 28.962 185.845 28.7274 186.24V192H27.5594ZM39.8435 192.128C39.1182 192.128 38.4675 191.952 37.8915 191.6C37.3155 191.248 36.8622 190.768 36.5315 190.16C36.2008 189.552 36.0355 188.864 36.0355 188.096C36.0355 187.328 36.2008 186.64 36.5315 186.032C36.8622 185.424 37.3155 184.944 37.8915 184.592C38.4675 184.24 39.1182 184.064 39.8435 184.064C40.5582 184.064 41.1982 184.24 41.7635 184.592C42.3395 184.944 42.7928 185.424 43.1235 186.032C43.4542 186.64 43.6195 187.328 43.6195 188.096C43.6195 188.864 43.4542 189.552 43.1235 190.16C42.7928 190.768 42.3395 191.248 41.7635 191.6C41.1982 191.952 40.5582 192.128 39.8435 192.128ZM39.8275 191.104C40.3395 191.104 40.7928 190.976 41.1875 190.72C41.5822 190.453 41.8915 190.091 42.1155 189.632C42.3502 189.173 42.4675 188.661 42.4675 188.096C42.4675 187.52 42.3502 187.008 42.1155 186.56C41.8915 186.101 41.5822 185.744 41.1875 185.488C40.7928 185.221 40.3395 185.088 39.8275 185.088C39.3155 185.088 38.8622 185.221 38.4675 185.488C38.0728 185.744 37.7582 186.101 37.5235 186.56C37.2995 187.008 37.1875 187.52 37.1875 188.096C37.1875 188.661 37.2995 189.173 37.5235 189.632C37.7582 190.091 38.0728 190.453 38.4675 190.72C38.8622 190.976 39.3155 191.104 39.8275 191.104ZM45.6688 195.344V184.192H46.8207V185.312C47.1194 184.917 47.4821 184.619 47.9088 184.416C48.3461 184.203 48.8261 184.096 49.3488 184.096C50.0314 184.096 50.6394 184.277 51.1728 184.64C51.7168 184.992 52.1488 185.472 52.4688 186.08C52.7888 186.677 52.9488 187.349 52.9488 188.096C52.9488 188.843 52.7834 189.52 52.4528 190.128C52.1328 190.736 51.6954 191.221 51.1408 191.584C50.5968 191.936 49.9781 192.112 49.2848 192.112C48.7941 192.112 48.3408 192.021 47.9248 191.84C47.5088 191.648 47.1461 191.376 46.8368 191.024V195.344H45.6688ZM49.0608 191.104C49.5834 191.104 50.0474 190.976 50.4528 190.72C50.8688 190.453 51.1941 190.096 51.4288 189.648C51.6741 189.189 51.7968 188.677 51.7968 188.112C51.7968 187.536 51.6741 187.024 51.4288 186.576C51.1941 186.128 50.8688 185.776 50.4528 185.52C50.0474 185.253 49.5834 185.12 49.0608 185.12C48.6021 185.12 48.1754 185.216 47.7808 185.408C47.3968 185.589 47.0821 185.851 46.8368 186.192V190.016C47.0928 190.357 47.4128 190.624 47.7968 190.816C48.1914 191.008 48.6128 191.104 49.0608 191.104ZM58.5169 192.16C57.7915 192.16 57.1355 191.984 56.5489 191.632C55.9622 191.269 55.4982 190.784 55.1569 190.176C54.8155 189.557 54.6449 188.864 54.6449 188.096C54.6449 187.328 54.8049 186.64 55.1249 186.032C55.4555 185.424 55.8982 184.944 56.4529 184.592C57.0075 184.24 57.6262 184.064 58.3089 184.064C59.0022 184.064 59.6155 184.24 60.1489 184.592C60.6929 184.933 61.1195 185.403 61.4289 186C61.7489 186.587 61.9089 187.253 61.9089 188V188.352H55.7809C55.8235 188.885 55.9675 189.365 56.2129 189.792C56.4689 190.208 56.7995 190.539 57.2049 190.784C57.6209 191.019 58.0742 191.136 58.5649 191.136C58.9702 191.136 59.3595 191.067 59.7329 190.928C60.1169 190.779 60.4422 190.581 60.7089 190.336L61.4449 191.12C60.9969 191.472 60.5329 191.733 60.0529 191.904C59.5729 192.075 59.0609 192.16 58.5169 192.16ZM55.8129 187.52H60.7569C60.7035 187.051 60.5595 186.635 60.3249 186.272C60.1009 185.899 59.8129 185.605 59.4609 185.392C59.1195 185.179 58.7355 185.072 58.3089 185.072C57.8822 185.072 57.4929 185.179 57.1409 185.392C56.7889 185.595 56.4955 185.883 56.2609 186.256C56.0369 186.619 55.8875 187.04 55.8129 187.52ZM67.9735 195.504C67.7282 195.504 67.4775 195.467 67.2215 195.392V194.352C67.3282 194.373 67.4402 194.389 67.5575 194.4C67.6748 194.411 67.7762 194.416 67.8615 194.416C68.1602 194.416 68.4055 194.336 68.5975 194.176C68.8002 194.016 68.9708 193.765 69.1095 193.424L69.6855 192L66.6775 184.192H67.9735L70.3415 190.608L72.8535 184.192H74.1495L70.2135 193.776C70.0428 194.192 69.8562 194.528 69.6535 194.784C69.4508 195.04 69.2162 195.221 68.9495 195.328C68.6828 195.445 68.3575 195.504 67.9735 195.504ZM78.8279 192.128C78.1025 192.128 77.4519 191.952 76.8759 191.6C76.2999 191.248 75.8465 190.768 75.5159 190.16C75.1852 189.552 75.0199 188.864 75.0199 188.096C75.0199 187.328 75.1852 186.64 75.5159 186.032C75.8465 185.424 76.2999 184.944 76.8759 184.592C77.4519 184.24 78.1025 184.064 78.8279 184.064C79.5425 184.064 80.1825 184.24 80.7479 184.592C81.3239 184.944 81.7772 185.424 82.1079 186.032C82.4385 186.64 82.6039 187.328 82.6039 188.096C82.6039 188.864 82.4385 189.552 82.1079 190.16C81.7772 190.768 81.3239 191.248 80.7479 191.6C80.1825 191.952 79.5425 192.128 78.8279 192.128ZM78.8119 191.104C79.3239 191.104 79.7772 190.976 80.1719 190.72C80.5665 190.453 80.8759 190.091 81.0999 189.632C81.3345 189.173 81.4519 188.661 81.4519 188.096C81.4519 187.52 81.3345 187.008 81.0999 186.56C80.8759 186.101 80.5665 185.744 80.1719 185.488C79.7772 185.221 79.3239 185.088 78.8119 185.088C78.2999 185.088 77.8465 185.221 77.4519 185.488C77.0572 185.744 76.7425 186.101 76.5079 186.56C76.2839 187.008 76.1719 187.52 76.1719 188.096C76.1719 188.661 76.2839 189.173 76.5079 189.632C76.7425 190.091 77.0572 190.453 77.4519 190.72C77.8465 190.976 78.2999 191.104 78.8119 191.104ZM87.4371 192.128C86.8825 192.128 86.3918 192.005 85.9651 191.76C85.5385 191.515 85.2025 191.173 84.9571 190.736C84.7225 190.299 84.6051 189.797 84.6051 189.232V184.192H85.7891V188.896C85.7891 189.589 85.9758 190.139 86.3491 190.544C86.7225 190.949 87.2291 191.152 87.8691 191.152C88.3065 191.152 88.6958 191.051 89.0371 190.848C89.3891 190.645 89.6825 190.352 89.9171 189.968V184.192H91.0851V192H89.9171V190.736C89.6185 191.195 89.2611 191.541 88.8451 191.776C88.4398 192.011 87.9705 192.128 87.4371 192.128ZM100.736 192.16C100.01 192.16 99.3543 191.984 98.7676 191.632C98.181 191.269 97.717 190.784 97.3756 190.176C97.0343 189.557 96.8636 188.864 96.8636 188.096C96.8636 187.328 97.0236 186.64 97.3436 186.032C97.6743 185.424 98.117 184.944 98.6716 184.592C99.2263 184.24 99.845 184.064 100.528 184.064C101.221 184.064 101.834 184.24 102.368 184.592C102.912 184.933 103.338 185.403 103.648 186C103.968 186.587 104.128 187.253 104.128 188V188.352H97.9996C98.0423 188.885 98.1863 189.365 98.4316 189.792C98.6876 190.208 99.0183 190.539 99.4236 190.784C99.8396 191.019 100.293 191.136 100.784 191.136C101.189 191.136 101.578 191.067 101.952 190.928C102.336 190.779 102.661 190.581 102.928 190.336L103.664 191.12C103.216 191.472 102.752 191.733 102.272 191.904C101.792 192.075 101.28 192.16 100.736 192.16ZM98.0316 187.52H102.976C102.922 187.051 102.778 186.635 102.544 186.272C102.32 185.899 102.032 185.605 101.68 185.392C101.338 185.179 100.954 185.072 100.528 185.072C100.101 185.072 99.7116 185.179 99.3596 185.392C99.0076 185.595 98.7143 185.883 98.4796 186.256C98.2556 186.619 98.1063 187.04 98.0316 187.52ZM106.122 192V184.192H107.29V185.456C107.589 184.987 107.946 184.64 108.362 184.416C108.778 184.181 109.247 184.064 109.77 184.064C110.335 184.064 110.826 184.187 111.242 184.432C111.669 184.667 111.999 185.003 112.234 185.44C112.479 185.867 112.602 186.368 112.602 186.944V192H111.434V187.28C111.434 186.587 111.242 186.043 110.858 185.648C110.485 185.243 109.978 185.04 109.338 185.04C108.911 185.04 108.522 185.141 108.17 185.344C107.818 185.547 107.525 185.845 107.29 186.24V192H106.122ZM115.542 182.256C115.307 182.256 115.105 182.176 114.934 182.016C114.774 181.845 114.694 181.648 114.694 181.424C114.694 181.2 114.774 181.008 114.934 180.848C115.105 180.677 115.307 180.592 115.542 180.592C115.777 180.592 115.974 180.677 116.134 180.848C116.305 181.008 116.39 181.2 116.39 181.424C116.39 181.648 116.305 181.845 116.134 182.016C115.974 182.176 115.777 182.256 115.542 182.256ZM114.15 195.504C114.022 195.504 113.894 195.488 113.766 195.456C113.649 195.435 113.537 195.419 113.43 195.408V194.4C113.526 194.421 113.622 194.437 113.718 194.448C113.803 194.459 113.899 194.464 114.006 194.464C114.347 194.464 114.587 194.384 114.726 194.224C114.875 194.064 114.95 193.803 114.95 193.44V184.192H116.118V193.504C116.118 194.133 115.947 194.624 115.606 194.976C115.275 195.328 114.79 195.504 114.15 195.504ZM121.969 192.128C121.243 192.128 120.593 191.952 120.017 191.6C119.441 191.248 118.987 190.768 118.657 190.16C118.326 189.552 118.161 188.864 118.161 188.096C118.161 187.328 118.326 186.64 118.657 186.032C118.987 185.424 119.441 184.944 120.017 184.592C120.593 184.24 121.243 184.064 121.969 184.064C122.683 184.064 123.323 184.24 123.889 184.592C124.465 184.944 124.918 185.424 125.249 186.032C125.579 186.64 125.745 187.328 125.745 188.096C125.745 188.864 125.579 189.552 125.249 190.16C124.918 190.768 124.465 191.248 123.889 191.6C123.323 191.952 122.683 192.128 121.969 192.128ZM121.953 191.104C122.465 191.104 122.918 190.976 123.313 190.72C123.707 190.453 124.017 190.091 124.241 189.632C124.475 189.173 124.593 188.661 124.593 188.096C124.593 187.52 124.475 187.008 124.241 186.56C124.017 186.101 123.707 185.744 123.313 185.488C122.918 185.221 122.465 185.088 121.953 185.088C121.441 185.088 120.987 185.221 120.593 185.488C120.198 185.744 119.883 186.101 119.649 186.56C119.425 187.008 119.312 187.52 119.312 188.096C119.312 188.661 119.425 189.173 119.649 189.632C119.883 190.091 120.198 190.453 120.593 190.72C120.987 190.976 121.441 191.104 121.953 191.104ZM127.895 195.504C127.65 195.504 127.399 195.467 127.143 195.392V194.352C127.25 194.373 127.362 194.389 127.479 194.4C127.597 194.411 127.698 194.416 127.783 194.416C128.082 194.416 128.327 194.336 128.519 194.176C128.722 194.016 128.893 193.765 129.031 193.424L129.607 192L126.599 184.192H127.895L130.263 190.608L132.775 184.192H134.071L130.135 193.776C129.965 194.192 129.778 194.528 129.575 194.784C129.373 195.04 129.138 195.221 128.871 195.328C128.605 195.445 128.279 195.504 127.895 195.504ZM139.599 195.504C139.353 195.504 139.103 195.467 138.847 195.392V194.352C138.953 194.373 139.065 194.389 139.183 194.4C139.3 194.411 139.401 194.416 139.487 194.416C139.785 194.416 140.031 194.336 140.223 194.176C140.425 194.016 140.596 193.765 140.735 193.424L141.311 192L138.303 184.192H139.599L141.967 190.608L144.479 184.192H145.775L141.839 193.776C141.668 194.192 141.481 194.528 141.279 194.784C141.076 195.04 140.841 195.221 140.575 195.328C140.308 195.445 139.982 195.504 139.599 195.504ZM150.453 192.128C149.728 192.128 149.077 191.952 148.501 191.6C147.925 191.248 147.472 190.768 147.141 190.16C146.81 189.552 146.645 188.864 146.645 188.096C146.645 187.328 146.81 186.64 147.141 186.032C147.472 185.424 147.925 184.944 148.501 184.592C149.077 184.24 149.728 184.064 150.453 184.064C151.168 184.064 151.808 184.24 152.373 184.592C152.949 184.944 153.402 185.424 153.733 186.032C154.064 186.64 154.229 187.328 154.229 188.096C154.229 188.864 154.064 189.552 153.733 190.16C153.402 190.768 152.949 191.248 152.373 191.6C151.808 191.952 151.168 192.128 150.453 192.128ZM150.437 191.104C150.949 191.104 151.402 190.976 151.797 190.72C152.192 190.453 152.501 190.091 152.725 189.632C152.96 189.173 153.077 188.661 153.077 188.096C153.077 187.52 152.96 187.008 152.725 186.56C152.501 186.101 152.192 185.744 151.797 185.488C151.402 185.221 150.949 185.088 150.437 185.088C149.925 185.088 149.472 185.221 149.077 185.488C148.682 185.744 148.368 186.101 148.133 186.56C147.909 187.008 147.797 187.52 147.797 188.096C147.797 188.661 147.909 189.173 148.133 189.632C148.368 190.091 148.682 190.453 149.077 190.72C149.472 190.976 149.925 191.104 150.437 191.104ZM159.062 192.128C158.507 192.128 158.017 192.005 157.59 191.76C157.163 191.515 156.827 191.173 156.582 190.736C156.347 190.299 156.23 189.797 156.23 189.232V184.192H157.414V188.896C157.414 189.589 157.601 190.139 157.974 190.544C158.347 190.949 158.854 191.152 159.494 191.152C159.931 191.152 160.321 191.051 160.662 190.848C161.014 190.645 161.307 190.352 161.542 189.968V184.192H162.71V192H161.542V190.736C161.243 191.195 160.886 191.541 160.47 191.776C160.065 192.011 159.595 192.128 159.062 192.128ZM165.106 192V184.192H166.274V185.792C166.477 185.248 166.765 184.827 167.138 184.528C167.522 184.219 167.96 184.064 168.45 184.064C168.589 184.064 168.717 184.075 168.834 184.096C168.952 184.107 169.069 184.133 169.186 184.176V185.232C169.058 185.189 168.92 185.157 168.77 185.136C168.632 185.104 168.498 185.088 168.37 185.088C167.89 185.088 167.469 185.227 167.106 185.504C166.754 185.781 166.477 186.171 166.274 186.672V192H165.106ZM175.458 192V185.152H173.714V184.192H175.458V182.56C175.458 181.792 175.66 181.2 176.066 180.784C176.471 180.368 177.047 180.16 177.794 180.16C178.007 180.16 178.199 180.171 178.37 180.192C178.551 180.213 178.711 180.251 178.85 180.304V181.36C178.679 181.307 178.524 181.269 178.386 181.248C178.247 181.227 178.087 181.216 177.906 181.216C177.458 181.216 177.132 181.328 176.93 181.552C176.727 181.765 176.626 182.107 176.626 182.576V184.192H178.85V185.152H176.626V192H175.458ZM183.515 192.128C182.79 192.128 182.139 191.952 181.563 191.6C180.987 191.248 180.534 190.768 180.203 190.16C179.873 189.552 179.707 188.864 179.707 188.096C179.707 187.328 179.873 186.64 180.203 186.032C180.534 185.424 180.987 184.944 181.563 184.592C182.139 184.24 182.79 184.064 183.515 184.064C184.23 184.064 184.87 184.24 185.435 184.592C186.011 184.944 186.465 185.424 186.795 186.032C187.126 186.64 187.291 187.328 187.291 188.096C187.291 188.864 187.126 189.552 186.795 190.16C186.465 190.768 186.011 191.248 185.435 191.6C184.87 191.952 184.23 192.128 183.515 192.128ZM183.499 191.104C184.011 191.104 184.465 190.976 184.859 190.72C185.254 190.453 185.563 190.091 185.787 189.632C186.022 189.173 186.139 188.661 186.139 188.096C186.139 187.52 186.022 187.008 185.787 186.56C185.563 186.101 185.254 185.744 184.859 185.488C184.465 185.221 184.011 185.088 183.499 185.088C182.987 185.088 182.534 185.221 182.139 185.488C181.745 185.744 181.43 186.101 181.195 186.56C180.971 187.008 180.859 187.52 180.859 188.096C180.859 188.661 180.971 189.173 181.195 189.632C181.43 190.091 181.745 190.453 182.139 190.72C182.534 190.976 182.987 191.104 183.499 191.104ZM192.797 192.128C192.071 192.128 191.421 191.952 190.845 191.6C190.269 191.248 189.815 190.768 189.485 190.16C189.154 189.552 188.989 188.864 188.989 188.096C188.989 187.328 189.154 186.64 189.485 186.032C189.815 185.424 190.269 184.944 190.845 184.592C191.421 184.24 192.071 184.064 192.797 184.064C193.511 184.064 194.151 184.24 194.717 184.592C195.293 184.944 195.746 185.424 196.077 186.032C196.407 186.64 196.573 187.328 196.573 188.096C196.573 188.864 196.407 189.552 196.077 190.16C195.746 190.768 195.293 191.248 194.717 191.6C194.151 191.952 193.511 192.128 192.797 192.128ZM192.781 191.104C193.293 191.104 193.746 190.976 194.141 190.72C194.535 190.453 194.845 190.091 195.069 189.632C195.303 189.173 195.421 188.661 195.421 188.096C195.421 187.52 195.303 187.008 195.069 186.56C194.845 186.101 194.535 185.744 194.141 185.488C193.746 185.221 193.293 185.088 192.781 185.088C192.269 185.088 191.815 185.221 191.421 185.488C191.026 185.744 190.711 186.101 190.477 186.56C190.253 187.008 190.141 187.52 190.141 188.096C190.141 188.661 190.253 189.173 190.477 189.632C190.711 190.091 191.026 190.453 191.421 190.72C191.815 190.976 192.269 191.104 192.781 191.104ZM201.87 192.112C201.198 192.112 200.59 191.936 200.046 191.584C199.502 191.221 199.07 190.741 198.75 190.144C198.43 189.536 198.27 188.859 198.27 188.112C198.27 187.355 198.43 186.677 198.75 186.08C199.081 185.472 199.523 184.992 200.078 184.64C200.633 184.277 201.251 184.096 201.934 184.096C202.414 184.096 202.862 184.192 203.278 184.384C203.694 184.565 204.057 184.832 204.366 185.184V180.448L205.534 180.208V192H204.366V190.96C204.067 191.333 203.705 191.621 203.278 191.824C202.851 192.016 202.382 192.112 201.87 192.112ZM202.158 191.088C202.617 191.088 203.038 190.997 203.422 190.816C203.806 190.635 204.121 190.379 204.366 190.048V186.176C204.11 185.845 203.785 185.589 203.39 185.408C203.006 185.216 202.595 185.12 202.158 185.12C201.635 185.12 201.166 185.248 200.75 185.504C200.345 185.76 200.019 186.112 199.774 186.56C199.539 187.008 199.422 187.52 199.422 188.096C199.422 188.661 199.539 189.173 199.774 189.632C200.019 190.08 200.345 190.437 200.75 190.704C201.166 190.96 201.635 191.088 202.158 191.088ZM208.046 188.72L207.902 180.368H209.102L208.958 188.72H208.046ZM208.51 192.128C208.276 192.128 208.073 192.048 207.902 191.888C207.742 191.717 207.662 191.515 207.662 191.28C207.662 191.035 207.742 190.832 207.902 190.672C208.073 190.512 208.276 190.432 208.51 190.432C208.745 190.432 208.942 190.512 209.102 190.672C209.273 190.832 209.358 191.035 209.358 191.28C209.358 191.515 209.273 191.717 209.102 191.888C208.942 192.048 208.745 192.128 208.51 192.128Z" fill="#87635A"/>
</svg>
