<svg width="233" height="20" viewBox="0 0 233 20" fill="none" xmlns="http://www.w3.org/2000/svg">
<path d="M7.49998 18.75H5.62498V17.5H7.49998V9.72873L5.3031 8.41061L5.94685 7.33936L8.1431 8.65686C8.32778 8.76837 8.48063 8.92557 8.58692 9.11331C8.69322 9.30105 8.74937 9.51299 8.74998 9.72873V17.5C8.74998 17.8315 8.61828 18.1494 8.38386 18.3839C8.14944 18.6183 7.8315 18.75 7.49998 18.75Z" fill="#1EA575"/>
<path d="M13.75 18.75H11.875C11.5435 18.75 11.2255 18.6183 10.9911 18.3839C10.7567 18.1495 10.625 17.8315 10.625 17.5V10.625H14.375C14.7242 10.6251 15.0696 10.552 15.3888 10.4104C15.708 10.2688 15.9941 10.062 16.2285 9.80313C16.4629 9.54429 16.6405 9.2392 16.7498 8.90754C16.8591 8.57588 16.8977 8.225 16.8631 7.8775C16.7793 7.24532 16.4656 6.66615 15.9819 6.25064C15.4981 5.83513 14.8782 5.6124 14.2406 5.625H13.2512L13.1406 5.13812C12.7825 3.56 11.2694 2.5 9.375 2.5C8.65969 2.50234 7.95988 2.70854 7.35758 3.09443C6.75528 3.48031 6.27547 4.0299 5.97437 4.67875L5.78125 5.09562L5.24188 5.02437C5.16186 5.01103 5.08107 5.00288 5 5C4.33696 5 3.70107 5.26339 3.23223 5.73223C2.76339 6.20107 2.5 6.83696 2.5 7.5C2.5 8.16304 2.76339 8.79893 3.23223 9.26777C3.70107 9.73661 4.33696 10 5 10V11.25C4.00544 11.25 3.05161 10.8549 2.34835 10.1517C1.64509 9.44839 1.25 8.49456 1.25 7.5C1.25 6.50544 1.64509 5.55161 2.34835 4.84835C3.05161 4.14509 4.00544 3.75 5 3.75L5.04938 3.75062C5.4892 2.99234 6.11997 2.36249 6.87889 1.92376C7.6378 1.48504 8.4984 1.25274 9.375 1.25C11.6744 1.25 13.5575 2.48625 14.22 4.375H14.2406C15.1886 4.36443 16.1072 4.70375 16.8206 5.32805C17.534 5.95234 17.9922 6.81777 18.1075 7.75875C18.1586 8.27963 18.1001 8.80543 17.9358 9.30235C17.7715 9.79926 17.505 10.2563 17.1534 10.644C16.8018 11.0317 16.373 11.3415 15.8945 11.5536C15.416 11.7656 14.8984 11.8751 14.375 11.875H11.875V17.5H13.75V18.75Z" fill="#1EA575"/>
<path d="M31.78 14.5V5.652H28.392V4.7H36.246V5.652H32.858V14.5H31.78ZM37.6906 14.5V4.392L38.7126 4.182V8.774C38.974 8.36333 39.2866 8.06 39.6506 7.864C40.0146 7.65867 40.4253 7.556 40.8826 7.556C41.3773 7.556 41.8066 7.66333 42.1706 7.878C42.544 8.08333 42.8333 8.37733 43.0386 8.76C43.2533 9.13333 43.3606 9.572 43.3606 10.076V14.5H42.3386V10.37C42.3386 9.76333 42.1706 9.28733 41.8346 8.942C41.508 8.58733 41.0646 8.41 40.5046 8.41C40.1313 8.41 39.7906 8.49867 39.4826 8.676C39.1746 8.85333 38.918 9.11467 38.7126 9.46V14.5H37.6906ZM45.4012 14.5V7.668H46.4232V14.5H45.4012ZM45.9192 5.974C45.7139 5.974 45.5366 5.904 45.3872 5.764C45.2472 5.61467 45.1772 5.442 45.1772 5.246C45.1772 5.05 45.2472 4.882 45.3872 4.742C45.5366 4.59267 45.7139 4.518 45.9192 4.518C46.1246 4.518 46.2972 4.59267 46.4372 4.742C46.5866 4.882 46.6612 5.05 46.6612 5.246C46.6612 5.442 46.5866 5.61467 46.4372 5.764C46.2972 5.904 46.1246 5.974 45.9192 5.974ZM50.6328 14.64C50.0728 14.64 49.5548 14.556 49.0788 14.388C48.6028 14.2107 48.1968 13.9587 47.8608 13.632L48.4068 12.96C48.8174 13.2587 49.1954 13.478 49.5408 13.618C49.8861 13.7487 50.2408 13.814 50.6048 13.814C51.0994 13.814 51.5101 13.6973 51.8368 13.464C52.1634 13.2307 52.3268 12.932 52.3268 12.568C52.3268 12.288 52.2288 12.0687 52.0328 11.91C51.8461 11.7513 51.5334 11.63 51.0948 11.546L49.9748 11.35C49.3121 11.2287 48.8221 11.0233 48.5048 10.734C48.1968 10.4447 48.0428 10.0527 48.0428 9.558C48.0428 9.166 48.1454 8.82067 48.3508 8.522C48.5654 8.22333 48.8594 7.99 49.2328 7.822C49.6061 7.64467 50.0308 7.556 50.5068 7.556C50.9734 7.556 51.4168 7.626 51.8368 7.766C52.2568 7.89667 52.6814 8.11133 53.1108 8.41L52.6068 9.124C52.2521 8.872 51.8974 8.69 51.5428 8.578C51.1881 8.45667 50.8288 8.396 50.4648 8.396C50.0168 8.396 49.6574 8.494 49.3868 8.69C49.1161 8.886 48.9808 9.152 48.9808 9.488C48.9808 9.768 49.0648 9.98267 49.2328 10.132C49.4101 10.2813 49.7181 10.3933 50.1568 10.468L51.3048 10.678C51.9954 10.7993 52.4994 11.0093 52.8168 11.308C53.1341 11.6067 53.2928 12.008 53.2928 12.512C53.2928 12.9133 53.1761 13.2773 52.9428 13.604C52.7094 13.9213 52.3921 14.1733 51.9908 14.36C51.5894 14.5467 51.1368 14.64 50.6328 14.64ZM58.1024 14.5V7.668H59.1244V14.5H58.1024ZM58.6204 5.974C58.4151 5.974 58.2377 5.904 58.0884 5.764C57.9484 5.61467 57.8784 5.442 57.8784 5.246C57.8784 5.05 57.9484 4.882 58.0884 4.742C58.2377 4.59267 58.4151 4.518 58.6204 4.518C58.8257 4.518 58.9984 4.59267 59.1384 4.742C59.2877 4.882 59.3624 5.05 59.3624 5.246C59.3624 5.442 59.2877 5.61467 59.1384 5.764C58.9984 5.904 58.8257 5.974 58.6204 5.974ZM63.3339 14.64C62.7739 14.64 62.2559 14.556 61.7799 14.388C61.3039 14.2107 60.8979 13.9587 60.5619 13.632L61.1079 12.96C61.5186 13.2587 61.8966 13.478 62.2419 13.618C62.5873 13.7487 62.9419 13.814 63.3059 13.814C63.8006 13.814 64.2113 13.6973 64.5379 13.464C64.8646 13.2307 65.0279 12.932 65.0279 12.568C65.0279 12.288 64.9299 12.0687 64.7339 11.91C64.5473 11.7513 64.2346 11.63 63.7959 11.546L62.6759 11.35C62.0133 11.2287 61.5233 11.0233 61.2059 10.734C60.8979 10.4447 60.7439 10.0527 60.7439 9.558C60.7439 9.166 60.8466 8.82067 61.0519 8.522C61.2666 8.22333 61.5606 7.99 61.9339 7.822C62.3073 7.64467 62.7319 7.556 63.2079 7.556C63.6746 7.556 64.1179 7.626 64.5379 7.766C64.9579 7.89667 65.3826 8.11133 65.8119 8.41L65.3079 9.124C64.9533 8.872 64.5986 8.69 64.2439 8.578C63.8893 8.45667 63.5299 8.396 63.1659 8.396C62.7179 8.396 62.3586 8.494 62.0879 8.69C61.8173 8.886 61.6819 9.152 61.6819 9.488C61.6819 9.768 61.7659 9.98267 61.9339 10.132C62.1113 10.2813 62.4193 10.3933 62.8579 10.468L64.0059 10.678C64.6966 10.7993 65.2006 11.0093 65.5179 11.308C65.8353 11.6067 65.9939 12.008 65.9939 12.512C65.9939 12.9133 65.8773 13.2773 65.6439 13.604C65.4106 13.9213 65.0933 14.1733 64.6919 14.36C64.2906 14.5467 63.8379 14.64 63.3339 14.64ZM72.9316 14.626C72.4462 14.626 72.0169 14.5373 71.6436 14.36C71.2702 14.1827 70.9762 13.94 70.7616 13.632C70.5562 13.3147 70.4536 12.9507 70.4536 12.54C70.4536 12.1293 70.5609 11.7747 70.7756 11.476C70.9902 11.168 71.2889 10.93 71.6716 10.762C72.0542 10.594 72.5022 10.51 73.0156 10.51C73.4076 10.51 73.7762 10.552 74.1216 10.636C74.4762 10.72 74.8029 10.8553 75.1016 11.042V10.104C75.1016 9.544 74.9522 9.124 74.6536 8.844C74.3549 8.55467 73.9162 8.41 73.3376 8.41C73.0202 8.41 72.6936 8.45667 72.3576 8.55C72.0309 8.64333 71.6669 8.79267 71.2656 8.998L70.8876 8.214C71.8022 7.77533 72.6609 7.556 73.4636 7.556C74.3129 7.556 74.9662 7.766 75.4236 8.186C75.8809 8.59667 76.1096 9.18933 76.1096 9.964V14.5H75.1016V13.702C74.8029 14.01 74.4716 14.2433 74.1076 14.402C73.7436 14.5513 73.3516 14.626 72.9316 14.626ZM71.4336 12.512C71.4336 12.9133 71.5876 13.2353 71.8956 13.478C72.2129 13.7207 72.6282 13.842 73.1416 13.842C73.5242 13.842 73.8742 13.7767 74.1916 13.646C74.5182 13.5153 74.8216 13.3193 75.1016 13.058V11.742C74.8122 11.574 74.5136 11.4527 74.2056 11.378C73.8976 11.294 73.5522 11.252 73.1696 11.252C72.6469 11.252 72.2269 11.3687 71.9096 11.602C71.5922 11.826 71.4336 12.1293 71.4336 12.512Z" fill="#260F08"/>
<path d="M85.3445 14.626C84.6819 14.626 84.0799 14.4673 83.5385 14.15C83.0065 13.8233 82.5819 13.3847 82.2645 12.834C81.9565 12.2833 81.8025 11.672 81.8025 11C81.8025 10.3187 81.9565 9.70733 82.2645 9.166C82.5819 8.61533 83.0065 8.18133 83.5385 7.864C84.0799 7.53733 84.6819 7.374 85.3445 7.374C85.8859 7.374 86.3992 7.47667 86.8845 7.682C87.3792 7.88733 87.7992 8.18133 88.1445 8.564L87.1645 9.586C86.9219 9.31533 86.6512 9.11 86.3525 8.97C86.0539 8.83 85.7365 8.76 85.4005 8.76C85.0179 8.76 84.6725 8.86267 84.3645 9.068C84.0659 9.264 83.8279 9.53 83.6505 9.866C83.4732 10.202 83.3845 10.58 83.3845 11C83.3845 11.42 83.4732 11.8027 83.6505 12.148C83.8279 12.484 84.0659 12.75 84.3645 12.946C84.6725 13.142 85.0179 13.24 85.4005 13.24C85.7365 13.24 86.0539 13.17 86.3525 13.03C86.6512 12.89 86.9219 12.6893 87.1645 12.428L88.1445 13.436C87.7992 13.8187 87.3792 14.1127 86.8845 14.318C86.3992 14.5233 85.8859 14.626 85.3445 14.626ZM91.5807 14.626C91.0953 14.626 90.6613 14.5373 90.2787 14.36C89.9053 14.1733 89.6113 13.9213 89.3967 13.604C89.1913 13.2773 89.0887 12.904 89.0887 12.484C89.0887 12.064 89.196 11.7 89.4107 11.392C89.6347 11.084 89.9473 10.846 90.3487 10.678C90.75 10.51 91.226 10.426 91.7767 10.426C92.1033 10.426 92.4253 10.4633 92.7427 10.538C93.06 10.6033 93.368 10.7153 93.6667 10.874V10.09C93.6667 9.62333 93.5313 9.27333 93.2607 9.04C92.9993 8.80667 92.598 8.69 92.0567 8.69C91.7673 8.69 91.4547 8.73667 91.1187 8.83C90.792 8.914 90.4233 9.04933 90.0127 9.236L89.4527 8.088C90.4793 7.612 91.45 7.374 92.3647 7.374C93.2793 7.374 93.984 7.598 94.4787 8.046C94.9827 8.48467 95.2347 9.11 95.2347 9.922V14.5H93.6667V13.772C93.368 14.0613 93.046 14.276 92.7007 14.416C92.3553 14.556 91.982 14.626 91.5807 14.626ZM90.5727 12.456C90.5727 12.7827 90.7033 13.0393 90.9647 13.226C91.226 13.4127 91.576 13.506 92.0147 13.506C92.332 13.506 92.626 13.4593 92.8967 13.366C93.1767 13.2633 93.4333 13.114 93.6667 12.918V11.784C93.424 11.672 93.172 11.588 92.9107 11.532C92.6493 11.476 92.3647 11.448 92.0567 11.448C91.5993 11.448 91.2353 11.5367 90.9647 11.714C90.7033 11.8913 90.5727 12.1387 90.5727 12.456ZM97.1499 14.5V7.486H98.7319V8.998C98.9373 8.466 99.2033 8.06 99.5299 7.78C99.8566 7.5 100.235 7.36 100.664 7.36C100.804 7.36933 100.925 7.38333 101.028 7.402C101.131 7.41133 101.238 7.444 101.35 7.5V8.886C101.229 8.83 101.089 8.788 100.93 8.76C100.781 8.732 100.631 8.718 100.482 8.718C100.099 8.718 99.7539 8.82067 99.4459 9.026C99.1473 9.23133 98.9093 9.516 98.7319 9.88V14.5H97.1499ZM102.646 14.5V4.504L104.228 4.238V8.424C104.48 8.10667 104.793 7.864 105.166 7.696C105.539 7.51867 105.945 7.43 106.384 7.43C106.981 7.43 107.518 7.58867 107.994 7.906C108.47 8.22333 108.848 8.65267 109.128 9.194C109.417 9.73533 109.562 10.3373 109.562 11C109.562 11.6627 109.413 12.2647 109.114 12.806C108.825 13.3473 108.433 13.7767 107.938 14.094C107.443 14.4113 106.893 14.57 106.286 14.57C105.866 14.57 105.479 14.486 105.124 14.318C104.769 14.15 104.461 13.912 104.2 13.604V14.5H102.646ZM105.908 13.24C106.309 13.24 106.664 13.1467 106.972 12.96C107.289 12.764 107.537 12.498 107.714 12.162C107.901 11.8167 107.994 11.4293 107.994 11C107.994 10.5707 107.901 10.188 107.714 9.852C107.537 9.516 107.289 9.25 106.972 9.054C106.664 8.858 106.309 8.76 105.908 8.76C105.563 8.76 105.245 8.83 104.956 8.97C104.676 9.10067 104.433 9.292 104.228 9.544V12.47C104.433 12.7127 104.681 12.904 104.97 13.044C105.259 13.1747 105.572 13.24 105.908 13.24ZM114.411 14.626C113.748 14.626 113.146 14.4673 112.605 14.15C112.073 13.8327 111.653 13.4033 111.345 12.862C111.037 12.3113 110.883 11.6907 110.883 11C110.883 10.3093 111.037 9.69333 111.345 9.152C111.653 8.60133 112.073 8.16733 112.605 7.85C113.137 7.53267 113.739 7.374 114.411 7.374C115.083 7.374 115.68 7.53267 116.203 7.85C116.735 8.16733 117.155 8.60133 117.463 9.152C117.771 9.69333 117.925 10.3093 117.925 11C117.925 11.6907 117.771 12.3113 117.463 12.862C117.155 13.4033 116.735 13.8327 116.203 14.15C115.68 14.4673 115.083 14.626 114.411 14.626ZM114.411 13.282C114.793 13.282 115.129 13.184 115.419 12.988C115.717 12.792 115.951 12.5213 116.119 12.176C116.287 11.8213 116.371 11.4293 116.371 11C116.371 10.5613 116.287 10.174 116.119 9.838C115.951 9.49267 115.717 9.222 115.419 9.026C115.129 8.82067 114.793 8.718 114.411 8.718C114.028 8.718 113.687 8.82067 113.389 9.026C113.09 9.222 112.857 9.49267 112.689 9.838C112.521 10.174 112.437 10.5613 112.437 11C112.437 11.4387 112.521 11.8307 112.689 12.176C112.857 12.5213 113.09 12.792 113.389 12.988C113.687 13.184 114.028 13.282 114.411 13.282ZM119.558 14.5V7.486H121.14V8.634C121.411 8.214 121.733 7.90133 122.106 7.696C122.479 7.48133 122.899 7.374 123.366 7.374C123.842 7.374 124.262 7.48133 124.626 7.696C124.99 7.90133 125.275 8.19067 125.48 8.564C125.695 8.93733 125.802 9.376 125.802 9.88V14.5H124.206V10.328C124.206 9.81467 124.066 9.40867 123.786 9.11C123.506 8.802 123.133 8.648 122.666 8.648C122.349 8.648 122.059 8.72267 121.798 8.872C121.546 9.012 121.327 9.222 121.14 9.502V14.5H119.558ZM127.511 11.196V9.852H132.397V11.196H127.511ZM134.173 14.5V7.486H135.755V8.634C136.026 8.214 136.348 7.90133 136.721 7.696C137.095 7.48133 137.515 7.374 137.981 7.374C138.457 7.374 138.877 7.48133 139.241 7.696C139.605 7.90133 139.89 8.19067 140.095 8.564C140.31 8.93733 140.417 9.376 140.417 9.88V14.5H138.821V10.328C138.821 9.81467 138.681 9.40867 138.401 9.11C138.121 8.802 137.748 8.648 137.281 8.648C136.964 8.648 136.675 8.72267 136.413 8.872C136.161 9.012 135.942 9.222 135.755 9.502V14.5H134.173ZM145.584 14.64C144.912 14.64 144.305 14.4813 143.764 14.164C143.222 13.8373 142.793 13.4033 142.476 12.862C142.158 12.3113 142 11.6907 142 11C142 10.3093 142.149 9.69333 142.448 9.152C142.746 8.61067 143.152 8.18133 143.666 7.864C144.188 7.53733 144.767 7.374 145.402 7.374C146.055 7.374 146.629 7.53267 147.124 7.85C147.628 8.16733 148.02 8.59667 148.3 9.138C148.589 9.67933 148.734 10.3 148.734 11V11.378H143.554C143.61 11.7607 143.731 12.1013 143.918 12.4C144.114 12.6893 144.361 12.918 144.66 13.086C144.968 13.254 145.299 13.338 145.654 13.338C145.98 13.338 146.288 13.282 146.578 13.17C146.876 13.0487 147.124 12.8853 147.32 12.68L148.356 13.618C147.926 13.9727 147.488 14.234 147.04 14.402C146.601 14.5607 146.116 14.64 145.584 14.64ZM143.568 10.398H147.236C147.18 10.062 147.063 9.76333 146.886 9.502C146.718 9.24067 146.503 9.03533 146.242 8.886C145.99 8.73667 145.71 8.662 145.402 8.662C145.094 8.662 144.809 8.73667 144.548 8.886C144.296 9.026 144.086 9.22667 143.918 9.488C143.75 9.74933 143.633 10.0527 143.568 10.398ZM152.741 14.612C152.256 14.612 151.831 14.5047 151.467 14.29C151.103 14.0753 150.814 13.7813 150.599 13.408C150.394 13.0347 150.291 12.6007 150.291 12.106V7.486H151.887V11.644C151.887 12.1573 152.023 12.568 152.293 12.876C152.573 13.184 152.951 13.338 153.427 13.338C153.745 13.338 154.029 13.268 154.281 13.128C154.543 12.988 154.767 12.778 154.953 12.498V7.486H156.535V14.5H154.953V13.366C154.683 13.7767 154.361 14.0893 153.987 14.304C153.614 14.5093 153.199 14.612 152.741 14.612ZM161.52 14.64C160.81 14.64 160.274 14.4767 159.91 14.15C159.546 13.814 159.364 13.324 159.364 12.68V8.746H157.964V7.486H159.364V5.554L160.946 5.218V7.486H162.906V8.746H160.946V12.33C160.946 12.6753 161.02 12.9227 161.17 13.072C161.328 13.212 161.58 13.282 161.926 13.282C162.084 13.282 162.229 13.2727 162.36 13.254C162.5 13.226 162.672 13.1793 162.878 13.114V14.444C162.682 14.5093 162.458 14.556 162.206 14.584C161.963 14.6213 161.734 14.64 161.52 14.64ZM164.293 14.5V7.486H165.875V8.998C166.08 8.466 166.346 8.06 166.673 7.78C166.999 7.5 167.377 7.36 167.807 7.36C167.947 7.36933 168.068 7.38333 168.171 7.402C168.273 7.41133 168.381 7.444 168.493 7.5V8.886C168.371 8.83 168.231 8.788 168.073 8.76C167.923 8.732 167.774 8.718 167.625 8.718C167.242 8.718 166.897 8.82067 166.589 9.026C166.29 9.23133 166.052 9.516 165.875 9.88V14.5H164.293ZM171.698 14.626C171.213 14.626 170.779 14.5373 170.396 14.36C170.023 14.1733 169.729 13.9213 169.514 13.604C169.309 13.2773 169.206 12.904 169.206 12.484C169.206 12.064 169.313 11.7 169.528 11.392C169.752 11.084 170.065 10.846 170.466 10.678C170.867 10.51 171.343 10.426 171.894 10.426C172.221 10.426 172.543 10.4633 172.86 10.538C173.177 10.6033 173.485 10.7153 173.784 10.874V10.09C173.784 9.62333 173.649 9.27333 173.378 9.04C173.117 8.80667 172.715 8.69 172.174 8.69C171.885 8.69 171.572 8.73667 171.236 8.83C170.909 8.914 170.541 9.04933 170.13 9.236L169.57 8.088C170.597 7.612 171.567 7.374 172.482 7.374C173.397 7.374 174.101 7.598 174.596 8.046C175.1 8.48467 175.352 9.11 175.352 9.922V14.5H173.784V13.772C173.485 14.0613 173.163 14.276 172.818 14.416C172.473 14.556 172.099 14.626 171.698 14.626ZM170.69 12.456C170.69 12.7827 170.821 13.0393 171.082 13.226C171.343 13.4127 171.693 13.506 172.132 13.506C172.449 13.506 172.743 13.4593 173.014 13.366C173.294 13.2633 173.551 13.114 173.784 12.918V11.784C173.541 11.672 173.289 11.588 173.028 11.532C172.767 11.476 172.482 11.448 172.174 11.448C171.717 11.448 171.353 11.5367 171.082 11.714C170.821 11.8913 170.69 12.1387 170.69 12.456ZM177.267 14.5V4.462L178.849 4.182V14.5H177.267Z" fill="#260F08"/>
<path d="M187.16 14.598C186.572 14.598 186.04 14.444 185.564 14.136C185.088 13.8187 184.71 13.3987 184.43 12.876C184.15 12.344 184.01 11.7513 184.01 11.098C184.01 10.4353 184.15 9.84267 184.43 9.32C184.719 8.788 185.106 8.368 185.592 8.06C186.077 7.74267 186.618 7.584 187.216 7.584C187.636 7.584 188.028 7.668 188.392 7.836C188.756 7.99467 189.073 8.228 189.344 8.536V4.392L190.366 4.182V14.5H189.344V13.59C189.082 13.9167 188.765 14.1687 188.392 14.346C188.018 14.514 187.608 14.598 187.16 14.598ZM187.412 13.702C187.813 13.702 188.182 13.6227 188.518 13.464C188.854 13.3053 189.129 13.0813 189.344 12.792V9.404C189.12 9.11467 188.835 8.89067 188.49 8.732C188.154 8.564 187.794 8.48 187.412 8.48C186.954 8.48 186.544 8.592 186.18 8.816C185.825 9.04 185.54 9.348 185.326 9.74C185.12 10.132 185.018 10.58 185.018 11.084C185.018 11.5787 185.12 12.0267 185.326 12.428C185.54 12.82 185.825 13.1327 186.18 13.366C186.544 13.59 186.954 13.702 187.412 13.702ZM195.546 14.64C194.911 14.64 194.337 14.486 193.824 14.178C193.311 13.8607 192.905 13.436 192.606 12.904C192.307 12.3627 192.158 11.756 192.158 11.084C192.158 10.412 192.298 9.81 192.578 9.278C192.867 8.746 193.255 8.326 193.74 8.018C194.225 7.71 194.767 7.556 195.364 7.556C195.971 7.556 196.507 7.71 196.974 8.018C197.45 8.31667 197.823 8.72733 198.094 9.25C198.374 9.76333 198.514 10.3467 198.514 11V11.308H193.152C193.189 11.7747 193.315 12.1947 193.53 12.568C193.754 12.932 194.043 13.2213 194.398 13.436C194.762 13.6413 195.159 13.744 195.588 13.744C195.943 13.744 196.283 13.6833 196.61 13.562C196.946 13.4313 197.231 13.2587 197.464 13.044L198.108 13.73C197.716 14.038 197.31 14.2667 196.89 14.416C196.47 14.5653 196.022 14.64 195.546 14.64ZM193.18 10.58H197.506C197.459 10.1693 197.333 9.80533 197.128 9.488C196.932 9.16133 196.68 8.90467 196.372 8.718C196.073 8.53133 195.737 8.438 195.364 8.438C194.991 8.438 194.65 8.53133 194.342 8.718C194.034 8.89533 193.777 9.14733 193.572 9.474C193.376 9.79133 193.245 10.16 193.18 10.58ZM200.259 14.5V4.392L201.281 4.182V14.5H200.259ZM203.362 14.5V7.668H204.384V14.5H203.362ZM203.88 5.974C203.675 5.974 203.498 5.904 203.348 5.764C203.208 5.61467 203.138 5.442 203.138 5.246C203.138 5.05 203.208 4.882 203.348 4.742C203.498 4.59267 203.675 4.518 203.88 4.518C204.086 4.518 204.258 4.59267 204.398 4.742C204.548 4.882 204.622 5.05 204.622 5.246C204.622 5.442 204.548 5.61467 204.398 5.764C204.258 5.904 204.086 5.974 203.88 5.974ZM208.44 14.5L205.64 7.668H206.746L208.958 13.226L211.142 7.668H212.234L209.42 14.5H208.44ZM216.368 14.64C215.734 14.64 215.16 14.486 214.646 14.178C214.133 13.8607 213.727 13.436 213.428 12.904C213.13 12.3627 212.98 11.756 212.98 11.084C212.98 10.412 213.12 9.81 213.4 9.278C213.69 8.746 214.077 8.326 214.562 8.018C215.048 7.71 215.589 7.556 216.186 7.556C216.793 7.556 217.33 7.71 217.796 8.018C218.272 8.31667 218.646 8.72733 218.916 9.25C219.196 9.76333 219.336 10.3467 219.336 11V11.308H213.974C214.012 11.7747 214.138 12.1947 214.352 12.568C214.576 12.932 214.866 13.2213 215.22 13.436C215.584 13.6413 215.981 13.744 216.41 13.744C216.765 13.744 217.106 13.6833 217.432 13.562C217.768 13.4313 218.053 13.2587 218.286 13.044L218.93 13.73C218.538 14.038 218.132 14.2667 217.712 14.416C217.292 14.5653 216.844 14.64 216.368 14.64ZM214.002 10.58H218.328C218.282 10.1693 218.156 9.80533 217.95 9.488C217.754 9.16133 217.502 8.90467 217.194 8.718C216.896 8.53133 216.56 8.438 216.186 8.438C215.813 8.438 215.472 8.53133 215.164 8.718C214.856 8.89533 214.6 9.14733 214.394 9.474C214.198 9.79133 214.068 10.16 214.002 10.58ZM221.081 14.5V7.668H222.103V9.068C222.281 8.592 222.533 8.22333 222.859 7.962C223.195 7.69133 223.578 7.556 224.007 7.556C224.129 7.556 224.241 7.56533 224.343 7.584C224.446 7.59333 224.549 7.61667 224.651 7.654V8.578C224.539 8.54067 224.418 8.51267 224.287 8.494C224.166 8.466 224.049 8.452 223.937 8.452C223.517 8.452 223.149 8.57333 222.831 8.816C222.523 9.05867 222.281 9.39933 222.103 9.838V14.5H221.081ZM226.434 17.566C226.219 17.566 226 17.5333 225.776 17.468V16.558C225.869 16.5767 225.967 16.5907 226.07 16.6C226.173 16.6093 226.261 16.614 226.336 16.614C226.597 16.614 226.812 16.544 226.98 16.404C227.157 16.264 227.307 16.0447 227.428 15.746L227.932 14.5L225.3 7.668H226.434L228.506 13.282L230.704 7.668H231.838L228.394 16.054C228.245 16.418 228.081 16.712 227.904 16.936C227.727 17.16 227.521 17.3187 227.288 17.412C227.055 17.5147 226.77 17.566 226.434 17.566Z" fill="#260F08"/>
</svg>
